HIERARCHY
ROOT Hips
{
	OFFSET	0.00	0.00	0.00
	CHANNELS 6 Xposition Yposition Zposition Zrotation Xrotation Yrotation
	JOINT LeftUpLeg
	{
		OFFSET	 0.126116	-0.014019	-0.065224
		CHANNELS 3 Zrotation Xrotation Yrotation
		JOINT LeftLeg
		{
			OFFSET	 0.000000	 0.000000	 0.569914
			CHANNELS 3 Zrotation Xrotation Yrotation
			JOINT LeftFoot
			{
				OFFSET	 0.000000	 0.000000	 0.544423
				CHANNELS 3 Zrotation Xrotation Yrotation
				JOINT LeftToeBase
				{
					OFFSET	 0.000000	 0.000000	 0.207117
					CHANNELS 3 Zrotation Xrotation Yrotation
					End Site
					{
						OFFSET	 0.000000	 0.000000	 0.207117
					}
				}
			}
		}
	}
	JOINT RightUpLeg
	{
		OFFSET	-0.124023	-0.008373	-0.065224
		CHANNELS 3 Zrotation Xrotation Yrotation
		JOINT RightLeg
		{
			OFFSET	 0.000000	 0.000000	 0.570047
			CHANNELS 3 Zrotation Xrotation Yrotation
			JOINT RightFoot
			{
				OFFSET	 0.000000	 0.000000	 0.544354
				CHANNELS 3 Zrotation Xrotation Yrotation
				JOINT RightToeBase
				{
					OFFSET	 0.000000	 0.000000	 0.207540
					CHANNELS 3 Zrotation Xrotation Yrotation
					End Site
					{
						OFFSET	 0.000000	 0.000000	 0.207540
					}
				}
			}
		}
	}
	JOINT Spine
	{
		OFFSET	 0.000184	-0.007763	 0.117403
		CHANNELS 3 Zrotation Xrotation Yrotation
		JOINT Spine1
		{
			OFFSET	 0.000000	 0.000000	 0.137269
			CHANNELS 3 Zrotation Xrotation Yrotation
			JOINT Spine2
			{
				OFFSET	 0.000000	 0.000000	 0.156879
				CHANNELS 3 Zrotation Xrotation Yrotation
				JOINT LeftShoulder
				{
					OFFSET	 0.080501	-0.002496	 0.160144
					CHANNELS 3 Zrotation Xrotation Yrotation
					JOINT LeftArm
					{
						OFFSET	 0.000000	 0.000000	 0.164363
						CHANNELS 3 Zrotation Xrotation Yrotation
						JOINT LeftForeArm
						{
							OFFSET	 0.000000	 0.000000	 0.364576
							CHANNELS 3 Zrotation Xrotation Yrotation
							JOINT LeftHand
							{
								OFFSET	 0.000000	 0.000000	 0.360812
								CHANNELS 3 Zrotation Xrotation Yrotation
								JOINT LeftHandIndex1
								{
									OFFSET	 0.000000	 0.000000	 0.086006
									CHANNELS 3 Zrotation Xrotation Yrotation
									JOINT LeftHandIndex2
									{
										OFFSET	 0.000000	 0.000000	 0.047236
										CHANNELS 3 Zrotation Xrotation Yrotation
										JOINT LeftHandIndex3
										{
											OFFSET	-0.004284	-0.000551	 0.038166
											CHANNELS 3 Zrotation Xrotation Yrotation
											End Site
											{
												OFFSET	-0.004284	-0.000551	 0.038166
											}
										}
									}
								}
							}
						}
					}
				}
				JOINT Neck
				{
					OFFSET	 0.000000	 0.000000	 0.176489
					CHANNELS 3 Zrotation Xrotation Yrotation
					JOINT Head
					{
						OFFSET	 0.000000	-0.001747	 0.077940
						CHANNELS 3 Zrotation Xrotation Yrotation
						End Site
						{
							OFFSET	 0.000000	-0.001747	 0.077940
						}
					}
				}
				JOINT RightShoulder
				{
					OFFSET	-0.080363	 0.000306	 0.159706
					CHANNELS 3 Zrotation Xrotation Yrotation
					JOINT RightArm
					{
						OFFSET	 0.000000	 0.000000	 0.164196
						CHANNELS 3 Zrotation Xrotation Yrotation
						JOINT RightForeArm
						{
							OFFSET	 0.000000	 0.000000	 0.365611
							CHANNELS 3 Zrotation Xrotation Yrotation
							JOINT RightHand
							{
								OFFSET	 0.000000	 0.000000	 0.360648
								CHANNELS 3 Zrotation Xrotation Yrotation
								JOINT RightHandIndex1
								{
									OFFSET	 0.000000	 0.000000	 0.069977
									CHANNELS 3 Zrotation Xrotation Yrotation
									JOINT RightHandIndex2
									{
										OFFSET	 0.000000	 0.000000	 0.052305
										CHANNELS 3 Zrotation Xrotation Yrotation
										JOINT RightHandIndex3
										{
											OFFSET	 0.009002	-0.000782	 0.042196
											CHANNELS 3 Zrotation Xrotation Yrotation
											End Site
											{
												OFFSET	 0.009002	-0.000782	 0.042196
											}
										}
									}
								}
							}
						}
					}
				}
			}
		}
	}
}
MOTION
Frames:    5
Frame Time: 0.03333334
 6.477942	 6.407088	 1.100248	-87.838940	 3.925495	-0.930282	 9.947312	 16.990260	-176.338900	-6.129423	-11.623680	 1.541901	-21.175770	 89.264850	 24.663060	-2.299263	 39.895210	-0.272822	 3.943842	-45.829730	 179.373400	-0.737363	-45.022490	 3.283264	-177.342300	 83.368270	-178.639700	 2.406008	 20.509740	-0.162970	-9.739066	 3.339664	 2.882250	-15.501610	-2.589060	 0.285525	-18.186270	-5.418002	-2.748811	-91.776180	 78.527400	 180.000000	 45.327790	 63.779880	-60.634040	-7.045416	-5.126847	-29.023560	 5.570131	-2.103587	-5.366305	-3.812334	 37.924440	-2.927599	-2.450526	 36.184240	 0.754587	-1.378229	 35.397820	-2.634230	-0.127052	 5.038882	-2.341537	-4.810709	-23.792920	-4.915864	 89.782100	 78.203850	-180.000000	-35.713620	 75.292340	 39.472130	 3.942374	-7.263738	 20.980540	-15.443450	-3.276376	 9.543753	 6.437017	 35.671460	-0.771858	 2.830251	 35.756010	-7.813440	-2.350882	 35.473990	 5.254307
 6.466887	 6.404340	 1.095990	-90.522010	 4.007476	-0.860176	 9.757837	 17.402530	-176.290800	-6.001240	-11.624250	 1.537551	-16.893040	 89.188430	 20.356120	-2.292356	 40.494470	-0.288967	 4.249277	-45.885810	 179.728800	-0.708967	-43.120640	 3.275437	-177.069500	 83.721240	-178.662500	 2.401467	 23.262950	-0.107498	-9.778916	 3.457593	 2.910754	-15.520930	-2.394858	 0.290688	-18.156280	-5.162284	-2.726661	-91.776180	 78.527400	-180.000000	 41.694520	 62.094310	-56.903110	-6.643716	-4.585882	-27.557660	 4.831979	-2.106897	-5.365383	-3.812334	 37.924440	-2.927599	-2.450526	 36.184240	 0.754587	-1.378229	 35.397820	-2.634230	-0.177828	 4.849688	-2.366594	-4.791394	-23.105500	-4.801981	 89.782090	 78.203830	-180.000000	-30.935340	 72.985250	 34.826550	 3.928125	-6.551081	 20.074780	-14.276210	-3.279047	 9.541897	 6.437017	 35.671460	-0.771858	 2.830251	 35.756010	-7.813440	-2.350882	 35.473990	 5.254307
 6.445161	 6.403988	 1.093233	-89.960620	 4.105062	-1.072466	 9.420465	 18.268310	-176.297300	-5.718983	-11.624760	 1.534100	-9.899124	 88.989730	 13.341790	-2.275463	 41.867680	-0.326878	 4.516086	-45.689680	-179.713700	-0.193736	-42.316650	 3.652723	-176.305800	 84.545190	-178.928800	 2.389130	 27.318180	-0.022996	-9.904408	 3.410915	 2.887172	-15.631700	-2.319355	 0.207163	-18.223340	-5.024766	-2.740906	-91.776180	 78.527400	 180.000000	 42.552210	 62.275980	-57.858850	-6.391393	-4.587074	-26.574510	 5.096770	-2.116140	-5.362962	-3.812334	 37.924440	-2.927599	-2.450526	 36.184240	 0.754587	-1.378229	 35.397820	-2.634230	-0.276468	 5.031186	-2.302207	-4.875477	-23.363280	-4.869838	 89.782090	 78.203890	-180.000000	-30.364490	 73.192700	 33.852490	 3.852928	-6.478081	 19.641090	-14.413410	-3.283595	 9.538646	 6.437017	 35.671460	-0.771858	 2.830251	 35.756010	-7.813440	-2.350882	 35.473990	 5.254307
 6.421833	 6.404096	 1.093562	-89.513520	 4.202465	-1.225044	 9.128913	 19.193080	-176.425800	-5.393652	-11.624230	 1.538217	-4.019570	 88.641310	 7.484942	-2.256884	 43.244750	-0.366309	 4.803230	-45.462310	-179.256500	 0.142368	-42.073170	 3.976383	-175.691200	 85.430270	-179.189900	 2.378324	 29.726350	 0.029192	-10.019820	 3.389651	 2.803122	-15.706390	-2.254609	 0.117430	-18.221210	-4.877849	-2.752770	-91.776180	 78.527420	-180.000000	 43.345510	 62.639970	-58.600260	-6.238079	-4.574589	-25.495320	 5.380213	-2.126742	-5.359846	-3.812334	 37.924440	-2.927599	-2.450526	 36.184240	 0.754587	-1.378229	 35.397820	-2.634230	-0.370893	 5.182309	-2.297278	-4.942640	-23.484940	-4.856233	 89.782120	 78.203870	 180.000000	-29.742070	 73.460720	 32.906840	 3.853388	-6.417182	 19.239090	-14.566040	-3.290097	 9.533781	 6.437017	 35.671460	-0.771858	 2.830251	 35.756010	-7.813440	-2.350882	 35.473990	 5.254307
 6.396966	 6.404542	 1.092304	-89.101400	 4.320697	-1.339339	 8.878872	 20.156520	-176.651500	-5.029724	-11.622770	 1.549467	 0.242106	 88.051070	 3.291814	-2.232987	 44.849140	-0.414226	 5.076506	-45.078680	-178.866500	 0.490413	-42.299320	 4.361703	-175.554400	 86.319480	-179.005700	 2.376045	 30.165620	 0.038909	-10.143340	 3.327309	 2.668608	-15.771580	-2.215143	-0.001761	-18.207790	-4.742530	-2.765381	-91.776180	 78.527400	-180.000000	 44.095390	 63.157100	-59.209920	-6.187268	-4.549244	-24.366390	 5.675525	-2.139794	-5.355831	-3.812334	 37.924440	-2.927599	-2.450526	 36.184240	 0.754587	-1.378229	 35.397820	-2.634230	-0.466335	 5.188612	-2.268784	-4.995593	-23.443200	-4.793642	 89.782090	 78.203830	-180.000000	-29.041310	 73.761340	 31.907840	 3.902314	-6.365134	 18.873220	-14.721110	-3.297073	 9.528209	 6.437017	 35.671460	-0.771858	 2.830251	 35.756010	-7.813440	-2.350882	 35.473990	 5.254307
